<svg
      xmlns="http://www.w3.org/2000/svg"
      viewBox="0 0 408 612"
      width="16"
      height="16"
      preserveAspectRatio="xMidYMid meet"
    >
      <metadata>
        Created by potrace 1.16, written by Peter Selinger 2001-2019
      </metadata>
      <!-- Fondo blanco -->
      <rect width="100%" height="100%" fill="#000000" />

      <g
        transform="translate(0,612) scale(0.1,-0.1)"
        fill="#FFFFFF"
        stroke="none"
      >
        <path
          d="M0 3060 l0 -3060 2040 0 2040 0 0 3060 0 3060 -2040 0 -2040 0 0
-3060z m2008 2227 c6 -5 12 -31 12 -57 l0 -47 -127 -78 c-71 -43 -169 -106
-219 -141 l-91 -62 -51 29 c-28 16 -54 34 -58 41 -4 6 14 0 41 -15 26 -15 53
-27 61 -27 7 0 38 17 68 38 52 35 55 39 52 74 -2 34 11 70 57 153 6 11 37 43
68 70 32 28 58 55 58 62 1 11 103 -20 129 -40z m225 -8 c57 -29 101 -61 148
-108 67 -67 133 -167 122 -184 -4 -6 -1 -7 7 -2 10 6 12 4 7 -8 -4 -12 -2 -15
11 -11 11 4 8 -2 -8 -15 -21 -18 -13 -16 43 9 105 46 100 35 -14 -29 l-55 -31
-60 43 c-32 24 -130 87 -216 141 l-158 98 0 53 0 53 43 15 c23 8 43 15 45 16
1 0 39 -18 85 -40z m-249 -404 c27 -69 52 -125 57 -125 4 0 11 10 15 23 3 12
24 68 46 125 l39 102 77 0 77 0 0 -249 0 -249 -35 -6 c-19 -3 -52 -6 -72 -6
-36 0 -38 2 -38 30 0 20 5 30 15 30 13 0 15 21 15 132 0 72 -2 129 -4 127 -2
-2 -28 -62 -56 -132 -52 -126 -54 -128 -83 -125 -27 3 -32 10 -73 113 -24 61
-48 119 -53 130 -7 14 -10 -23 -10 -112 -1 -112 1 -133 14 -133 10 0 15 -10
15 -30 0 -28 -2 -30 -37 -30 -21 0 -54 3 -73 6 l-35 6 0 249 0 249 76 0 75 0
48 -125z m592 10 c-9 -14 -14 -25 -11 -25 3 0 1 -9 -5 -21 -6 -11 -13 -29 -15
-40 -4 -22 -23 -42 -46 -51 -9 -4 -23 -34 -33 -71 -20 -72 -81 -245 -90 -254
-20 -21 -13 20 22 119 22 62 50 156 62 208 12 52 24 101 26 108 3 11 76 49 98
51 4 1 1 -10 -8 -24z m294 -326 c21 -38 -85 -233 -181 -334 -28 -29 -45 -55
-39 -57 6 -2 15 -21 20 -43 8 -35 6 -45 -16 -79 -16 -24 -24 -47 -21 -62 3
-18 0 -24 -13 -24 -9 0 -27 -12 -41 -26 -13 -14 -33 -30 -44 -36 -13 -7 -7 4
15 28 19 21 38 41 41 44 15 13 30 82 27 129 -2 28 -4 51 -6 51 -2 0 -18 -11
-35 -24 -37 -28 -155 -86 -176 -86 -11 0 -11 3 -1 15 9 11 9 19 2 28 -8 9 8
22 65 52 52 27 107 70 176 135 72 68 98 88 92 70 l-7 -25 26 24 c34 32 77 121
66 140 -8 15 19 101 32 101 4 0 12 -9 18 -21z m-1305 -413 c11 -7 35 -17 53
-21 18 -3 30 -10 27 -15 -9 -14 154 -76 228 -85 91 -13 107 -16 107 -25 0 -6
-17 -10 -37 -10 l-38 0 40 -26 c38 -24 39 -25 10 -19 -84 18 -336 136 -395
186 -35 29 -31 41 5 15z m735 -56 l31 -29 -8 -73 c-12 -110 -7 -154 23 -206
87 -151 105 -208 90 -286 -10 -52 -23 -37 -30 36 -7 60 -22 112 -80 261 -14
37 -29 99 -32 137 -4 39 -10 70 -14 70 -5 0 -13 -15 -19 -32 l-12 -33 -24 40
c-13 22 -25 36 -25 30 -1 -5 -5 -1 -9 10 -7 17 -3 21 23 25 28 5 31 8 31 43 0
45 12 47 55 7z m-350 -236 c30 -31 49 -53 41 -49 -11 6 -13 4 -7 -10 7 -18 6
-18 -16 0 -13 11 -38 33 -55 49 l-33 29 -14 -34 c-25 -60 -24 -64 29 -168 14
-28 24 -51 21 -51 -9 0 -119 191 -141 245 -22 55 -22 60 -7 81 l17 22 55 -28
c30 -16 80 -54 110 -86z m341 -244 c28 -177 23 -303 -15 -386 -14 -31 -26 -60
-26 -65 0 -24 -63 -156 -74 -156 -8 0 -11 9 -8 24 2 12 9 20 15 16 5 -3 7 -1
4 4 -4 6 0 36 8 68 28 107 63 320 69 425 6 94 3 142 -19 270 -3 14 2 5 10 -20
9 -25 25 -106 36 -180z m-845 -62 c14 2 25 -7 37 -33 9 -19 22 -35 29 -35 6 0
8 -3 5 -6 -4 -4 -13 -1 -22 6 -8 7 -15 10 -15 7 0 -13 32 -75 50 -97 l20 -25
-19 48 c-11 26 -16 47 -11 47 5 0 14 -16 21 -35 7 -19 16 -35 20 -35 4 0 17
-13 29 -30 17 -24 18 -30 6 -30 -8 0 -17 8 -19 18 -3 9 -5 3 -4 -15 1 -19 5
-29 12 -25 5 4 15 7 20 7 12 1 36 -31 39 -51 1 -9 7 -19 14 -23 6 -4 8 -12 3
-20 -6 -9 -17 2 -37 38 -17 33 -30 47 -35 40 -4 -7 -1 -19 7 -26 13 -14 18
-28 15 -45 0 -5 4 -8 11 -8 6 0 9 -3 5 -6 -3 -4 0 -13 8 -20 8 -8 11 -22 8
-31 -4 -11 -3 -14 5 -9 8 5 10 1 5 -10 -4 -10 -2 -15 3 -11 5 3 10 -3 10 -14
0 -10 -1 -19 -2 -19 -2 0 -123 219 -155 280 -37 69 -58 130 -52 146 4 12 2 15
-8 12 -8 -3 -13 -16 -12 -32 3 -40 -4 -31 -21 28 -19 63 -20 97 -3 46 9 -26
17 -34 33 -32z m354 -268 c-7 -5 -9 -14 -12 -69 -1 -17 -4 -28 -8 -26 -3 2
-35 50 -70 106 -42 67 -65 114 -67 138 l-2 36 83 -90 c46 -49 80 -92 76 -95z
m519 -432 c-55 -121 -145 -255 -195 -288 -12 -8 -36 -25 -52 -37 -59 -45 -41
3 58 150 78 115 101 143 110 132 19 -22 37 -7 72 60 18 35 34 62 36 60 2 -2
-11 -37 -29 -77z m-677 -57 c-1 -6 4 -26 11 -44 8 -17 12 -38 10 -44 -3 -7 1
-13 7 -13 7 0 10 -7 6 -15 -3 -10 1 -15 12 -16 9 0 12 -3 5 -5 -7 -3 -9 -12
-6 -20 3 -7 9 -12 13 -9 5 3 7 -7 6 -22 -2 -16 0 -33 5 -39 5 -6 10 -43 10
-83 1 -39 3 -71 4 -71 2 0 17 25 34 55 17 30 33 55 35 55 2 0 -16 -48 -41
-106 -49 -116 -53 -147 -10 -82 15 23 27 37 27 32 0 -19 -49 -154 -63 -174
-13 -18 -15 -19 -21 -5 -3 9 -6 35 -7 58 l-1 42 -13 -35 c-17 -44 -18 -33 -4
25 6 25 15 42 20 39 6 -3 7 13 4 38 -3 26 -2 36 3 25 5 -11 8 21 7 77 0 53 -4
96 -9 96 -4 0 -6 13 -4 29 2 17 2 28 -2 26 -3 -2 -17 44 -30 101 -14 57 -21
102 -15 100 5 -2 9 -9 7 -15z m553 -592 c-28 -115 -58 -146 -113 -116 l-22 13
41 64 c23 35 52 89 64 119 40 102 39 101 43 42 2 -30 -4 -85 -13 -122z m100
-279 c4 -6 -7 -10 -24 -10 -22 0 -31 -5 -32 -17 -7 -93 -7 -93 -91 -93 -92 0
-103 7 -103 65 l0 45 -45 1 c-34 0 -40 2 -25 9 29 12 312 12 320 0z m-2 -157
l-33 -4 0 -75 0 -74 -113 0 -113 0 4 70 c5 77 7 75 -83 83 -22 2 52 4 165 4
113 0 190 -2 173 -4z m17 -190 c121 -7 115 -20 -11 -22 l-67 -1 -7 -80 c-8
-87 -16 -96 -80 -88 -23 2 -30 10 -40 46 -7 23 -12 60 -11 82 l1 40 -70 0
c-38 0 -95 4 -125 8 -48 6 -38 8 75 12 72 3 150 7 175 8 25 1 97 -1 160 -5z"
        />
      </g>
    </svg>